# xmcd CD database file generated by Grip 3.0.7
# 
# Track frame offsets:
#       150
#       13875
#       28323
#       42748
#       57908
#       72538
#       88263
#       100893
#       116233
#       134423
#       151748
#       170104
#       183084
#       196246
#       207636
#       223266
#       235199
#       247538
# 
# Disc length: 3493 seconds
# 
# Revision: 2
# Processed by: cddbd v1.5.1PL0 Copyright (c) Steve Scherf et al.
# Submitted via: Grip 3.0.7
# 
DISCID=120da312
DTITLE=Tanya Tucker - Anthology CD2
DYEAR=2001
DGENRE=Country
TTITLE0=The Jamestown Ferry
TTITLE1=What's Your mama's Name, Child
TTITLE2=Blood Red And Going Down
TTITLE3=Call On Me
TTITLE4=Don't Go Out
TTITLE5=Down To My last Teardrop
TTITLE6=Would You lay With Me
TTITLE7=If It Don't Come Easy
TTITLE8=I'll Come Back As Another Woman
TTITLE9=Some Kind Of Trouble
TTITLE10=Little Things
TTITLE11=Here's Some Love
TTITLE12=One Love At A Time
TTITLE13=Pecos Promenade
TTITLE14=Soon
TTITLE15=Walking Shoes
TTITLE16=Strong Enough To Bend
TTITLE17=Just Another Love
EXTD=
EXTT0=
EXTT1=
EXTT2=
EXTT3=
EXTT4=
EXTT5=
EXTT6=
EXTT7=
EXTT8=
EXTT9=
EXTT10=
EXTT11=
EXTT12=
EXTT13=
EXTT14=
EXTT15=
EXTT16=
EXTT17=
PLAYORDER=
